<svg width="32" height="32" viewBox="0 0 32 32" fill="none" xmlns="http://www.w3.org/2000/svg">
<path d="M9.3335 18.8533L12.2802 15.0799C12.457 14.8503 12.6842 14.6644 12.9443 14.5364C13.2044 14.4084 13.4903 14.3419 13.7802 14.3419C14.07 14.3419 14.356 14.4084 14.616 14.5364C14.8761 14.6644 15.1033 14.8503 15.2802 15.0799L16.7202 16.9199C16.897 17.1496 17.1242 17.3355 17.3843 17.4635C17.6444 17.5914 17.9303 17.658 18.2202 17.658C18.51 17.658 18.796 17.5914 19.056 17.4635C19.3161 17.3355 19.5433 17.1496 19.7202 16.9199L22.6668 13.1466" stroke="#FC8450" stroke-width="1.5" stroke-linecap="round" stroke-linejoin="round"/>
<path d="M27.6933 13.3333C27.895 14.208 27.9978 15.1024 28 16C28 19.1826 26.7357 22.2348 24.4853 24.4853C22.2348 26.7357 19.1826 28 16 28C12.8174 28 9.76516 26.7357 7.51472 24.4853C5.26428 22.2348 4 19.1826 4 16C4 12.8174 5.26428 9.76516 7.51472 7.51472C9.76516 5.26428 12.8174 4 16 4C16.8968 4.0024 17.7908 4.10073 18.6667 4.29333" stroke="#FC8450" stroke-width="1.5" stroke-linecap="round" stroke-linejoin="round"/>
<path d="M25.3332 9.33333C26.8059 9.33333 27.9998 8.13943 27.9998 6.66667C27.9998 5.19391 26.8059 4 25.3332 4C23.8604 4 22.6665 5.19391 22.6665 6.66667C22.6665 8.13943 23.8604 9.33333 25.3332 9.33333Z" stroke="#FC8450" stroke-width="1.5" stroke-linecap="round" stroke-linejoin="round"/>
</svg>
