<svg width="33" height="32" viewBox="0 0 33 32" fill="none" xmlns="http://www.w3.org/2000/svg">
<path d="M20.6601 5.66663H21.8334C22.8943 5.66663 23.9117 6.08805 24.6618 6.8382C25.412 7.58834 25.8334 8.60576 25.8334 9.66663V24.3333C25.8334 25.3942 25.412 26.4116 24.6618 27.1617C23.9117 27.9119 22.8943 28.3333 21.8334 28.3333H11.1667C10.1059 28.3333 9.08847 27.9119 8.33832 27.1617C7.58818 26.4116 7.16675 25.3942 7.16675 24.3333V9.66663C7.16675 8.60576 7.58818 7.58834 8.33832 6.8382C9.08847 6.08805 10.1059 5.66663 11.1667 5.66663H12.3667" stroke="#43F0B6" stroke-width="1.5" stroke-miterlimit="10" stroke-linecap="round"/>
<path d="M18.5 3.66663H14.5C13.3954 3.66663 12.5 4.56206 12.5 5.66663C12.5 6.7712 13.3954 7.66663 14.5 7.66663H18.5C19.6046 7.66663 20.5 6.7712 20.5 5.66663C20.5 4.56206 19.6046 3.66663 18.5 3.66663Z" stroke="#43F0B6" stroke-width="1.5" stroke-miterlimit="10" stroke-linecap="round"/>
<path d="M13.22 17.3866L15.5 19.6666L20.5 14.6666" stroke="#43F0B6" stroke-width="1.5" stroke-linecap="round" stroke-linejoin="round"/>
</svg>
