<svg width="32" height="32" viewBox="0 0 32 32" fill="none" xmlns="http://www.w3.org/2000/svg">
<path d="M16 4.25C18.4393 4.25 20.417 6.22773 20.417 8.66699C20.4169 10.4339 19.3787 11.9558 17.8809 12.6621C17.9403 12.9511 17.9727 13.25 17.9727 13.5557C17.9726 13.9728 17.9122 14.3764 17.8037 14.7598C18.7312 14.292 19.779 14.0274 20.8887 14.0273C24.6779 14.0273 27.7499 17.0995 27.75 20.8887C27.75 24.678 24.678 27.75 20.8887 27.75C19.3392 27.75 17.9103 27.2355 16.7617 26.3691C15.9574 27.2182 14.8191 27.75 13.5557 27.75H8.66699C6.22773 27.75 4.25 25.7723 4.25 23.333C4.2501 22.0068 4.83591 20.8185 5.75977 20.0098C5.57497 19.5225 5.47266 18.9949 5.47266 18.4443C5.47267 17.8934 5.57473 17.3654 5.75977 16.8779C4.8362 16.0691 4.25003 14.8817 4.25 13.5557C4.25 11.7884 5.28791 10.2659 6.78613 9.55957C6.72678 9.27084 6.69436 8.97242 6.69434 8.66699C6.69434 6.22773 8.67207 4.25 11.1113 4.25H16ZM8.66699 22.8613C8.4063 22.8613 8.19451 23.0724 8.19434 23.333C8.19434 23.5938 8.40619 23.8057 8.66699 23.8057H13.5557C13.8164 23.8056 14.0273 23.5938 14.0273 23.333C14.0272 23.0724 13.8163 22.8614 13.5557 22.8613H8.66699ZM20.8887 17.9727C19.278 17.9728 17.9728 19.278 17.9727 20.8887C17.9727 22.4994 19.2779 23.8055 20.8887 23.8057C22.4995 23.8057 23.8057 22.4995 23.8057 20.8887C23.8055 19.2779 22.4994 17.9727 20.8887 17.9727ZM9.88867 17.9727C9.62801 17.9728 9.41705 18.1837 9.41699 18.4443C9.41699 18.7051 9.62797 18.9169 9.88867 18.917H14.3164C14.414 18.5913 14.5351 18.276 14.6777 17.9727H9.88867ZM8.66699 13.083C8.40619 13.083 8.19434 13.2949 8.19434 13.5557C8.19439 13.8164 8.40623 14.0273 8.66699 14.0273H13.5557C13.8164 14.0273 14.0273 13.8164 14.0273 13.5557C14.0273 13.2949 13.8164 13.0831 13.5557 13.083H8.66699ZM11.1113 8.19434C10.8505 8.19434 10.6387 8.40619 10.6387 8.66699C10.6388 8.92764 10.8506 9.13867 11.1113 9.13867H16C16.2607 9.13867 16.4725 8.92764 16.4727 8.66699C16.4727 8.40619 16.2608 8.19434 16 8.19434H11.1113Z" stroke="#FC8450" stroke-width="1.5"/>
</svg>
