<svg width="32" height="32" viewBox="0 0 32 32" fill="none" xmlns="http://www.w3.org/2000/svg">
<path d="M12 15.4933L14.92 18.4133L21.3333 12" stroke="#FC8450" stroke-width="1.5" stroke-linecap="round" stroke-linejoin="round"/>
<path d="M17.3335 27.36L16.0002 28.12L14.6668 27.36C11.828 25.721 9.47088 23.3634 7.83248 20.5243C6.19407 17.6852 5.33218 14.4647 5.3335 11.1867C5.33398 10.7191 5.45742 10.2598 5.69145 9.85491C5.92547 9.45005 6.26185 9.11384 6.66683 8.88002L14.7735 4.20002C15.146 3.98339 15.5692 3.86926 16.0002 3.86926C16.4311 3.86926 16.8543 3.98339 17.2268 4.20002L25.3335 8.88002C25.7385 9.11384 26.0749 9.45005 26.3089 9.85491C26.5429 10.2598 26.6664 10.7191 26.6668 11.1867C26.6682 14.4647 25.8063 17.6852 24.1679 20.5243C22.5294 23.3634 20.1723 25.721 17.3335 27.36Z" stroke="#FC8450" stroke-width="1.5" stroke-linecap="round" stroke-linejoin="round"/>
</svg>
