<svg width="33" height="32" viewBox="0 0 33 32" fill="none" xmlns="http://www.w3.org/2000/svg">
<path d="M28.0331 14.5867L25.6598 12.2134V8.84004C25.6598 8.3096 25.4491 7.80089 25.074 7.42582C24.6989 7.05075 24.1902 6.84004 23.6598 6.84004H20.2865L17.9131 4.4667C17.7283 4.27965 17.5083 4.13114 17.2657 4.02978C17.023 3.92841 16.7627 3.87622 16.4998 3.87622C16.2369 3.87622 15.9765 3.92841 15.7339 4.02978C15.4913 4.13114 15.2712 4.27965 15.0865 4.4667L12.7131 6.84004H9.33979C8.80936 6.84004 8.30065 7.05075 7.92558 7.42582C7.5505 7.80089 7.33979 8.3096 7.33979 8.84004V12.2134L4.96646 14.5867C4.7794 14.7715 4.63089 14.9916 4.52953 15.2342C4.42817 15.4768 4.37598 15.7371 4.37598 16C4.37598 16.263 4.42817 16.5233 4.52953 16.7659C4.63089 17.0085 4.7794 17.2286 4.96646 17.4134L7.33979 19.7867V23.16C7.33979 23.6905 7.5505 24.1992 7.92558 24.5742C8.30065 24.9493 8.80936 25.16 9.33979 25.16H12.7131L15.0865 27.5334C15.2712 27.7204 15.4913 27.8689 15.7339 27.9703C15.9765 28.0717 16.2369 28.1238 16.4998 28.1238C16.7627 28.1238 17.023 28.0717 17.2657 27.9703C17.5083 27.8689 17.7283 27.7204 17.9131 27.5334L20.2865 25.16H23.6598C24.1902 25.16 24.6989 24.9493 25.074 24.5742C25.4491 24.1992 25.6598 23.6905 25.6598 23.16V19.7867L28.0331 17.4134C28.2202 17.2286 28.3687 17.0085 28.4701 16.7659C28.5714 16.5233 28.6236 16.263 28.6236 16C28.6236 15.7371 28.5714 15.4768 28.4701 15.2342C28.3687 14.9916 28.2202 14.7715 28.0331 14.5867Z" stroke="#FB834F" stroke-width="1.5" stroke-linejoin="round"/>
<path d="M11.7134 16.2933L14.7134 19.2933L21.2867 12.7067" stroke="#FB834F" stroke-width="1.5" stroke-linecap="round" stroke-linejoin="round"/>
</svg>
