<svg width="44" height="44" viewBox="0 0 44 44" fill="none" xmlns="http://www.w3.org/2000/svg">
<g clip-path="url(#clip0_39_243)">
<path d="M15.255 17.4813L14.3783 17.9277C13.3927 18.4296 12.5029 19.1023 11.746 19.9177C10.4251 21.3407 10.0002 23.4297 10.64 25.3557L10.6611 25.4192C11.0136 26.4806 11.5249 27.4847 12.176 28.3941L12.2149 28.4485C13.3963 30.0988 15.3356 30.9838 17.2634 30.7525C18.368 30.62 19.4354 30.296 20.421 29.7941L21.2977 29.3476C21.8263 29.0785 22.4462 29.0433 23.0193 29.2499L24.0116 29.6076C26.9375 30.6624 29.7183 28.0427 28.9466 24.9584C27.9289 20.891 25.9945 17.0922 23.3036 13.8769C21.2631 11.4387 17.5088 12.1468 16.641 15.1335L16.3467 16.1465C16.1767 16.7314 15.7836 17.2121 15.255 17.4813Z" stroke="#FC8450" stroke-width="1.5"/>
<path d="M27.2915 11.3423C30.0262 11.443 32.5885 12.9294 33.8812 15.4679C35.1739 18.0064 34.8689 20.9529 33.3419 23.2238" stroke="#FC8450" stroke-width="1.5" stroke-linecap="round" stroke-linejoin="round"/>
<path d="M28.5127 15.2092C29.4645 15.3219 30.3939 15.9651 30.9109 16.9805C31.428 17.9959 31.4016 19.1258 30.9329 19.9618" stroke="#FC8450" stroke-width="1.5" stroke-linecap="round" stroke-linejoin="round"/>
</g>
<defs>
<clipPath id="clip0_39_243">
<rect width="32" height="32" fill="white" transform="translate(0.481445 14.521) rotate(-26.9865)"/>
</clipPath>
</defs>
</svg>
